# xmcd CD database file
#
# Track frame offsets:
#	150
#	24921
#	39642
#	69105
#	96532
#	132255
#	154841
#	178186
#	198275
#	223292
#	250337
#	272961
#	291253
#
# Disc length: 4186 seconds
#
# Revision: 0
# Processed by: cddbd v1.5.2PL0 Copyright (c) Steve Scherf et al.
# Submitted via: CDex 1.70beta2
#
DISCID=c810580d
DTITLE=John Scofield - A Moment's Peace
DYEAR=2011
DGENRE=Jazz
TTITLE0=Simply Put
TTITLE1=I Will
TTITLE2=Lawns
TTITLE3=Throw It Away
TTITLE4=I Want To Talk About You
TTITLE5=Gee Baby Ain't I Good To You
TTITLE6=Johan
TTITLE7=Mood Returns
TTITLE8=Already September
TTITLE9=You Don't Know What Love Is
TTITLE10=Plain Song
TTITLE11=I Loves You Porgy
TTITLE12=Just A Girl I Used To Know
EXTD=YEAR: 2011
EXTT0=
EXTT1=
EXTT2=
EXTT3=
EXTT4=
EXTT5=
EXTT6=
EXTT7=
EXTT8=
EXTT9=
EXTT10=
EXTT11=
EXTT12=
PLAYORDER=
